<svg xmlns="http://www.w3.org/2000/svg" width="512" height="512" viewBox="0 0 512 512">
  <defs>
    <linearGradient id="grad1" x1="0" y1="0" x2="512" y2="512" gradientUnits="userSpaceOnUse">
      <stop stop-color="#9B30FF"></stop>
      <stop offset="1" stop-color="#6A0DAD"></stop>
    </linearGradient>
    <filter id="shadow" x="-20%" y="-20%" width="140%" height="140%">
      <feDropShadow dx="0" dy="8" stdDeviation="8" flood-color="#000" flood-opacity="0.3"></feDropShadow>
    </filter>
  </defs>
  <g filter="url(#shadow)">
    <circle cx="256" cy="256" r="256" fill="url(#grad1)" stroke="white" stroke-width="8"></circle>
    <path fill="white" d="M256 128c-70.7 0-128 57.3-128 128 0 56.6 36.8 104.6 87.8 121.5 6.4 1.2 8.8-2.8 8.8-6.2v-21.8c-35.7 7.8-43.3-17.2-43.3-17.2-5.8-14.6-14.3-18.5-14.3-18.5-11.6-7.9.9-7.7.9-7.7 12.8.9 19.5 13.1 19.5 13.1 11.4 19.5 29.9 13.9 37.2 10.6 1.2-8.3 4.4-13.9 8.1-17.1-28.5-3.2-58.5-14.3-58.5-63.5 0-14 5-25.5 13.1-34.5-1.3-3.2-5.7-16.1 1.2-33.5 0 0 10.7-3.4 35 13.1a122.3 122.3 0 0 1 63.6 0c24.3-16.5 35-13.1 35-13.1 6.9 17.4 2.5 30.3 1.2 33.5 8.1 9 13.1 20.5 13.1 34.5 0 49.3-30 60.3-58.6 63.5 4.5 3.9 8.5 11.6 8.5 23.5v34.8c0 3.5 2.3 7.5 8.8 6.2A129.3 129.3 0 0 0 384 256c0-70.7-57.3-128-128-128z"></path>
  </g>
</svg>
