<svg xmlns="http://www.w3.org/2000/svg" width="512" height="512" viewBox="0 0 512 512">
  <defs>
    <linearGradient id="grad1" x1="0" y1="0" x2="512" y2="512" gradientUnits="userSpaceOnUse">
      <stop stop-color="#9B30FF"></stop>
      <stop offset="1" stop-color="#6A0DAD"></stop>
    </linearGradient>
    <filter id="shadow" x="-20%" y="-20%" width="140%" height="140%">
      <feDropShadow dx="0" dy="8" stdDeviation="8" flood-color="#000" flood-opacity="0.3"></feDropShadow>
    </filter>
  </defs>
  <g filter="url(#shadow)">
    <circle cx="256" cy="256" r="256" fill="url(#grad1)" stroke="white" stroke-width="8"></circle>
    <path d="M176 192h48v168h-48V192zm24-60c15.5 0 28 12.5 28 28s-12.5 28-28 28-28-12.5-28-28 12.5-28 28-28zm64 60h46v22h.6c6.3-11.7 21.7-24 44.4-24 47 0 55.6 30.6 55.6 70.3V360h-48v-78.1c0-18.1-.4-41.6-26-41.6-26 0-29.9 20.1-29.9 41.1V360H264V192z" fill="white"></path>
  </g>
</svg>
