<svg xmlns="http://www.w3.org/2000/svg" width="64" height="64" viewBox="0 0 24 24" fill="none">
  <rect width="24" height="24" rx="4" fill="transparent"></rect>
  <path d="M4.98 3.5C4.98 4.60457 4.08457 5.5 2.98 5.5C1.87543 5.5 0.98 4.60457 0.98 3.5C0.98 2.39543 1.87543 1.5 2.98 1.5C4.08457 1.5 4.98 2.39543 4.98 3.5Z" fill="#8A2BE2"></path>
  <path d="M0.48 8.5H5.48V23.5H0.48V8.5ZM8.48 8.5H13.12V10.95H13.2C13.88 9.65 15.32 8.3 17.48 8.3C22.08 8.3 23.48 11.1 23.48 15.2V23.5H18.48V15.9C18.48 14.05 18.44 11.6 15.92 11.6C13.36 11.6 12.98 13.7 12.98 15.75V23.5H8.48V8.5Z" fill="#8A2BE2"></path>
</svg>
